Coordinates
version=1
nRows=4
nColumns=107
inDegrees=yes

Units are S.I. units (second, meters, Newtons, ...)
If the header above contains a line with 'inDegrees', this indicates whether rotational values are in degrees (yes) or radians (no).

endheader
time	sternoclavicular_r2	sternoclavicular_r3	unrotscap_r3	unrotscap_r2	acromioclavicular_r2	acromioclavicular_r3	acromioclavicular_r1	unrothum_r1	unrothum_r3	unrothum_r2	elv_angle	shoulder_elv	shoulder1_r2	shoulder_rot	elbow_flexion	pro_sup	deviation	flexion	proximal_distal_r1	proximal_distal_r3	cmc_flexion	cmc_abduction	mp_flexion	ip_flexion	mcp2_flexion	mcp2_abduction	pm2_flexion	md2_flexion	mcp3_flexion	mcp3_abduction	pm3_flexion	md3_flexion	mcp4_flexion	mcp4_abduction	pm4_flexion	md4_flexion	mcp5_flexion	mcp5_abduction	pm5_flexion	md5_flexion	bicpt_tx	bicpt_ty	bicpt_tz	bicpt2_tx	bicpt2_ty	bicpt2_tz	ptpt_tx	ptpt_ty	ptpt_tz	FCUpt_tx	FCUpt_ty	FCUpt_tz	EDCpt_tx	EDCpt_ty	EDCpt_tz	APLpt_tx	APLpt_ty	APLpt_tz	FPLpt_tx	FPLpt_ty	FPLpt_tz	FPLpt2_tx	FPLpt2_ty	FPLpt2_tz	PEC1pt2_tx	PEC1pt2_ty	PEC1pt2_tz	PEC1pt3_tx	PEC1pt3_ty	PEC1pt3_tz	PEC2pt2_tx	PEC2pt2_ty	PEC2pt2_tz	PEC2pt3_tx	PEC2pt3_ty	PEC2pt3_tz	PEC3pt2_tx	PEC3pt2_ty	PEC3pt2_tz	PEC3pt3_tx	PEC3pt3_ty	PEC3pt3_tz	DELT2pt2a_tx	DELT2pt2a_ty	DELT2pt2a_tz	DELT2pt2_tx	DELT2pt2_ty	DELT2pt2_tz	LAT1pt2_tx	LAT1pt2_ty	LAT1pt2_tz	LAT1pt3_tx	LAT1pt3_ty	LAT1pt3_tz	LAT2pt2_tx	LAT2pt2_ty	LAT2pt2_tz	LAT2pt3_tx	LAT2pt3_ty	LAT2pt3_tz	LAT3pt2_tx	LAT3pt2_ty	LAT3pt2_tz	LAT3pt3_tx	LAT3pt3_ty	LAT3pt3_tz
      0.40000000	     -0.32540611	      0.13782667	     -0.13782667	      0.32540611	     -0.06588812	      0.53248459	      0.23934816	     -0.23934816	     -0.53248459	      0.06588812	     98.92662347	     77.04278898	     -1.72659530	    -21.43565419	     28.98863232	     45.04999094	      0.16269258	     -0.05665314	      0.19913179	     -0.02832657	     34.18185018	    -18.98254955	      4.01982838	     13.21333731	     -4.18421999	      9.29302661	     14.17323400	    -25.03725417	     -4.33249016	     -1.13964355	      6.42523563	      9.70422007	     -7.96679326	     -4.27263482	    -10.78092549	     19.08225479	    -25.09104884	    -13.60378693	      3.13492419	      5.08753567	      0.00085885	     -0.03092254	     -0.00483517	      0.01655468	     -0.01807490	     -0.00691306	      0.00422131	     -0.06705238	     -0.00367902	      0.00829260	     -0.18338639	     -0.00041267	     -0.00540599	      0.00158961	      0.00010326	      0.00005528	      0.00002211	      0.00011055	      0.00007075	      0.00021226	      0.00011940	     -0.00001243	     -0.00020544	     -0.00024652	      0.00252529	      0.00885993	      0.00616343	     -0.00826071	      0.01994554	     -0.01891830	      0.00252529	      0.00885993	      0.00616343	      0.00055642	      0.01849028	     -0.00971596	      0.00398095	      0.00492689	      0.01604778	      0.00000000	      0.00793933	      0.00000000	     -0.00723347	     -0.03342804	     -0.00654723	      0.01459093	     -0.00047643	     -0.00381265	     -0.00089883	      0.01506616	     -0.00616343	      0.00248249	      0.02174321	     -0.01797667	     -0.00603502	      0.01305448	     -0.00552140	     -0.01258367	      0.02756422	     -0.03085994	     -0.02362648	      0.01459534	     -0.00740467	     -0.01566538	      0.03184438	     -0.03856423
      0.43333333	     -0.32432425	      0.13736844	     -0.13736844	      0.32432425	     -0.06566906	      0.53071427	      0.23855241	     -0.23855241	     -0.53071427	      0.06566906	     99.17612340	     76.78664863	     -1.73094989	    -22.70448005	     28.98268599	     46.22421009	      0.15189238	     -0.07298538	      0.18725544	     -0.03649269	     33.97503298	    -19.18104073	      4.95942163	     11.68680692	     -4.37166219	      9.31576442	     14.91086625	    -25.93542085	     -4.05459217	     -1.22823301	      6.04472495	     10.39461619	     -8.03532879	     -4.41201785	    -10.90417440	     21.55442926	    -25.39175318	    -13.63585520	      4.47166455	      5.03570103	      0.00085866	     -0.03092186	     -0.00483506	      0.01654173	     -0.01807329	     -0.00677843	      0.00413455	     -0.06710848	     -0.00377361	      0.00841286	     -0.18336009	     -0.00041602	     -0.00554689	      0.00163941	      0.00009124	      0.00007022	      0.00002809	      0.00014043	      0.00008988	      0.00026963	      0.00015167	     -0.00001233	     -0.00020810	     -0.00024972	      0.00251690	      0.00883047	      0.00614294	     -0.00823324	      0.01987923	     -0.01885540	      0.00251690	      0.00883047	      0.00614294	      0.00055457	      0.01842881	     -0.00968366	      0.00397133	      0.00491051	      0.01602453	      0.00000000	      0.00788625	      0.00000000	     -0.00720942	     -0.03331690	     -0.00650317	      0.01528801	     -0.00051642	     -0.00429355	     -0.00089584	      0.01501607	     -0.00614294	      0.00247424	      0.02167092	     -0.01791690	     -0.00601496	      0.01301108	     -0.00550305	     -0.01254183	      0.02747258	     -0.03075734	     -0.02354793	      0.01454682	     -0.00738006	     -0.01561330	      0.03173851	     -0.03843602
      0.46666667	     -0.32407606	      0.13726332	     -0.13726332	      0.32407606	     -0.06561881	      0.53030813	      0.23836986	     -0.23836986	     -0.53030813	      0.06561881	     99.20868567	     76.72788699	     -1.73151821	    -23.01550427	     29.08012812	     46.69223210	      0.15339287	     -0.06123091	      0.18891679	     -0.03061546	     34.29330190	    -19.15506523	      3.72944975	     13.64723273	     -4.42322833	      9.25478623	     14.10287744	    -23.31828024	     -4.38484742	     -1.15038417	      6.54631502	      9.95064593	     -8.33201640	     -4.34974510	     -9.63308814	     18.72291005	    -25.03411185	    -13.58211457	      3.33770959	      5.10116775	      0.00086188	     -0.03093303	     -0.00483686	      0.01653569	     -0.01809976	     -0.00672423	      0.00409997	     -0.06713085	     -0.00381131	      0.00846091	     -0.18334949	     -0.00041707	     -0.00560305	      0.00165939	      0.00008624	      0.00005951	      0.00002380	      0.00011902	      0.00007617	      0.00022851	      0.00012854	     -0.00001248	     -0.00020398	     -0.00024478	      0.00251497	      0.00882371	      0.00613824	     -0.00822694	      0.01986401	     -0.01884097	      0.00251497	      0.00882371	      0.00613824	      0.00055415	      0.01841471	     -0.00967625	      0.00396912	      0.00490676	      0.01601917	      0.00000000	      0.00787410	      0.00000000	     -0.00720390	     -0.03329141	     -0.00649308	      0.01545558	     -0.00052631	     -0.00441512	     -0.00089516	      0.01500458	     -0.00613824	      0.00247235	      0.02165433	     -0.01790319	     -0.00601036	      0.01300113	     -0.00549884	     -0.01253223	      0.02745156	     -0.03073381	     -0.02352991	      0.01453568	     -0.00737441	     -0.01560135	      0.03171422	     -0.03840660
      0.50000000	     -0.32643613	      0.13826294	     -0.13826294	      0.32643613	     -0.06609668	      0.53417009	      0.24010578	     -0.24010578	     -0.53417009	      0.06609668	     98.74881675	     77.28665626	     -1.72349198	    -20.26616438	     28.84507368	     43.83689134	      0.16330285	     -0.06896475	      0.19979810	     -0.03448238	     33.77662981	    -19.18436192	      5.21870566	     11.52876334	     -4.19119800	      9.29643931	     14.99000996	    -24.85048615	     -4.22720117	     -1.63479945	      6.25048405	     10.80456240	     -8.29466547	     -4.61029843	    -10.86141138	     22.14490893	    -25.36780909	    -13.59593063	      4.35546499	      5.09499267	      0.00085411	     -0.03090609	     -0.00483252	      0.01656479	     -0.01803591	     -0.00705015	      0.00431095	     -0.06699442	     -0.00358130	      0.00816880	     -0.18341316	     -0.00040813	     -0.00526041	      0.00153859	      0.00011490	      0.00006658	      0.00002663	      0.00013317	      0.00008523	      0.00025568	      0.00014382	     -0.00001223	     -0.00021061	     -0.00025273	      0.00253329	      0.00888797	      0.00618294	     -0.00828685	      0.02000867	     -0.01897818	      0.00253329	      0.00888797	      0.00618294	      0.00055818	      0.01854881	     -0.00974671	      0.00399010	      0.00494249	      0.01606977	      0.00000000	      0.00799004	      0.00000000	     -0.00725636	     -0.03353385	     -0.00658931	      0.01392947	     -0.00044012	     -0.00339103	     -0.00090168	      0.01511385	     -0.00618294	      0.00249035	      0.02181203	     -0.01803357	     -0.00605413	      0.01309581	     -0.00553888	     -0.01262350	      0.02765147	     -0.03095763	     -0.02370126	      0.01464154	     -0.00742811	     -0.01571497	      0.03194518	     -0.03868630
